<?xml version="1.0" encoding="UTF-8" standalone="no"?>
<!DOCTYPE svg PUBLIC "-//W3C//DTD SVG 1.1//EN" "http://www.w3.org/Graphics/SVG/1.1/DTD/svg11.dtd">
<svg xmlns="http://www.w3.org/2000/svg" version="1.1" viewBox="0.00 0.00 500.00 500.00">
<path fill="#121f1f" d="
  M 249.20 140.23
  Q 248.52 141.40 248.29 143.26
  Q 246.56 156.80 246.50 166.50
  Q 246.38 188.23 246.19 209.95
  Q 246.19 210.43 245.77 210.65
  C 237.33 215.19 237.96 223.54 245.78 228.14
  A 1.00 1.00 0.0 0 1 246.27 229.00
  L 246.22 272.28
  Q 246.22 272.77 245.72 272.78
  L 233.47 272.89
  Q 232.86 272.90 232.75 272.29
  Q 230.41 258.83 219.82 250.22
  Q 219.42 249.89 219.47 249.37
  Q 221.13 232.48 213.77 217.25
  Q 212.75 215.15 210.35 207.23
  Q 205.88 192.52 213.69 179.89
  C 214.54 178.52 216.81 176.20 217.92 174.08
  Q 218.86 172.29 219.34 171.58
  Q 228.27 158.27 235.23 143.88
  C 240.26 133.47 244.70 120.35 249.14 108.49
  Q 249.43 107.72 249.73 108.49
  Q 253.43 118.03 256.78 127.48
  C 263.60 146.69 273.30 162.89 284.41 179.49
  C 293.24 192.69 289.59 204.93 284.13 218.53
  C 280.26 228.16 277.67 238.69 279.39 249.01
  Q 279.48 249.54 279.06 249.88
  Q 268.15 258.59 265.91 272.43
  Q 265.84 272.84 265.43 272.84
  L 253.36 272.84
  Q 252.63 272.84 252.63 272.11
  L 252.47 228.98
  Q 252.47 228.41 252.95 228.10
  C 261.04 222.86 260.72 216.02 252.97 210.63
  A 0.95 0.94 -73.0 0 1 252.56 209.85
  Q 252.55 186.04 252.38 162.25
  Q 252.33 154.53 249.65 140.31
  Q 249.53 139.67 249.20 140.23
  Z"
/>
<path fill="#121f1f" d="
  M 220.76 378.50
  C 224.24 379.52 225.68 378.68 225.59 374.99
  Q 225.34 364.64 225.64 349.94
  Q 225.65 349.42 226.17 349.42
  L 272.46 349.44
  Q 272.99 349.44 272.99 349.97
  L 272.97 377.09
  Q 272.97 377.68 273.37 378.11
  Q 274.68 379.50 276.99 378.91
  Q 288.19 376.03 297.80 371.97
  C 301.65 370.34 306.93 367.36 311.59 365.18
  C 318.97 361.74 324.77 356.77 331.80 350.78
  Q 338.38 345.17 343.18 339.81
  C 350.56 331.57 357.79 321.36 362.98 311.03
  Q 365.15 306.72 369.78 292.39
  Q 379.95 260.95 372.92 229.12
  C 371.33 221.95 368.41 214.14 365.66 206.69
  C 361.56 195.57 354.45 184.76 346.72 175.84
  C 344.68 173.48 342.99 170.52 340.99 168.45
  Q 320.07 146.82 294.49 136.73
  Q 285.37 133.13 268.58 129.73
  Q 267.97 129.60 267.72 129.04
  L 262.88 118.08
  Q 262.40 116.99 263.58 117.13
  Q 283.14 119.51 300.99 126.82
  Q 304.26 128.16 313.73 132.98
  Q 320.87 136.61 325.93 140.14
  C 332.15 144.46 338.44 149.15 343.57 154.75
  C 345.01 156.33 346.87 157.63 348.19 159.03
  Q 371.80 183.96 381.90 216.38
  Q 384.82 225.76 386.06 235.89
  C 389.85 266.82 384.80 297.49 368.61 324.41
  C 366.02 328.72 361.77 336.76 357.37 341.64
  Q 347.43 352.66 341.74 358.26
  C 339.72 360.26 336.58 362.82 333.65 364.75
  C 328.08 368.43 322.50 372.83 317.01 375.85
  Q 310.93 379.20 304.61 382.08
  C 298.45 384.89 291.55 386.72 284.74 388.71
  C 265.64 394.29 245.07 394.96 225.59 391.53
  C 218.56 390.29 210.80 387.82 203.42 385.54
  C 189.77 381.32 176.10 372.67 164.68 364.22
  Q 159.01 360.03 152.78 353.70
  Q 144.33 345.10 141.87 342.12
  Q 136.68 335.84 129.14 322.56
  C 121.40 308.94 115.95 294.28 113.57 278.62
  Q 102.96 208.77 152.38 157.38
  C 153.21 156.51 154.51 155.91 155.47 154.81
  C 160.34 149.21 166.76 144.70 172.80 140.44
  Q 177.63 137.04 183.39 134.02
  Q 192.99 128.99 197.96 126.93
  Q 215.57 119.62 235.19 117.06
  A 0.63 0.63 0.0 0 1 235.85 117.94
  L 230.92 129.03
  Q 230.71 129.52 230.19 129.63
  Q 214.18 133.25 206.50 135.94
  C 196.06 139.61 184.88 145.98 175.40 153.50
  C 172.86 155.52 169.88 157.22 167.62 159.27
  Q 153.48 172.19 142.90 188.17
  Q 138.87 194.25 135.78 200.83
  C 122.12 229.97 119.24 260.76 128.81 291.65
  C 130.45 296.92 133.16 303.16 135.47 308.93
  C 139.10 317.99 144.45 325.05 151.20 334.08
  Q 157.79 342.88 168.06 351.40
  C 175.64 357.68 181.59 362.13 190.45 366.42
  C 194.74 368.50 199.12 371.13 203.24 372.72
  Q 209.98 375.33 220.76 378.50
  Z
  M 239.22 376.97
  C 238.78 369.99 239.50 363.12 239.21 355.72
  A 2.32 2.32 0.0 0 0 237.02 353.49
  L 236.59 353.47
  Q 233.92 353.32 233.55 355.97
  Q 232.54 363.27 233.67 369.40
  Q 234.14 371.92 234.11 373.67
  C 234.08 375.55 233.31 381.38 237.36 380.42
  C 239.07 380.02 239.33 378.62 239.22 376.97
  Z"
/>
<path fill="#121f1f" d="
  M 297.69 157.33
  Q 293.04 154.93 278.68 149.74
  A 1.11 1.11 0.0 0 1 278.06 149.19
  L 271.84 136.91
  A 0.41 0.41 0.0 0 1 272.29 136.32
  Q 293.43 140.66 311.59 152.40
  C 315.51 154.94 319.61 157.09 323.06 160.06
  Q 330.62 166.56 337.50 173.76
  C 343.69 180.26 349.88 189.08 354.34 197.06
  Q 376.13 236.02 366.77 281.00
  C 363.30 297.65 357.03 311.61 347.07 324.97
  C 344.74 328.10 342.75 331.69 340.28 334.42
  C 324.65 351.64 305.22 364.89 282.42 370.66
  Q 281.56 370.88 281.56 369.99
  L 281.57 360.00
  A 1.21 1.21 0.0 0 1 282.43 358.84
  Q 290.48 356.38 298.05 352.52
  C 302.94 350.03 308.46 346.06 313.74 342.94
  Q 317.41 340.77 322.15 335.90
  Q 332.71 325.05 335.53 321.52
  Q 341.53 314.02 342.86 310.84
  C 344.67 306.52 347.40 301.87 348.95 298.32
  C 360.44 272.07 361.47 240.65 349.69 214.55
  C 347.39 209.44 344.00 201.90 340.40 196.54
  C 335.81 189.69 330.63 182.99 324.46 177.48
  C 322.74 175.95 321.30 174.09 319.67 172.71
  Q 307.50 162.37 297.69 157.33
  Z"
/>
<path fill="#121f1f" d="
  M 158.38 177.38
  Q 165.09 169.22 176.16 160.05
  C 180.81 156.20 186.06 153.27 191.31 150.15
  Q 207.65 140.43 226.56 136.37
  A 0.45 0.44 7.9 0 1 227.05 137.01
  L 220.45 149.37
  Q 220.21 149.83 219.71 150.02
  C 211.87 152.97 203.63 155.88 196.70 160.03
  C 189.57 164.30 182.39 169.17 176.66 175.23
  C 174.87 177.13 172.63 178.75 171.01 180.51
  C 138.96 215.25 131.27 263.38 153.77 305.56
  C 155.56 308.91 156.99 312.66 159.12 315.61
  Q 168.42 328.55 180.41 338.99
  C 185.90 343.77 193.12 347.53 199.55 351.71
  Q 203.41 354.21 216.44 358.59
  A 0.99 0.98 9.6 0 1 217.11 359.52
  L 217.18 370.22
  A 0.49 0.48 -82.0 0 1 216.56 370.69
  C 201.02 366.41 187.23 359.40 174.87 349.21
  C 167.34 343.01 161.16 337.98 155.26 329.59
  C 152.29 325.38 148.92 321.25 146.41 317.02
  Q 138.67 303.99 135.81 294.71
  Q 115.64 229.26 158.38 177.38
  Z"
/>
<rect fill="#121f1f" x="218.97" y="279.77" width="60.80" height="9.46" rx="4.64"/>
<rect fill="#121f1f" x="231.37" y="296.68" width="36.06" height="9.36" rx="0.27"/>
<rect fill="#121f1f" x="218.63" y="313.32" width="61.42" height="11.66" rx="5.70"/>
<path fill="#121f1f" d="
  M 270.64 342.53
  L 228.19 342.54
  A 0.32 0.32 0.0 0 1 227.87 342.21
  L 228.20 332.53
  A 0.32 0.32 0.0 0 1 228.52 332.22
  L 270.28 332.22
  A 0.32 0.32 0.0 0 1 270.60 332.53
  L 270.96 342.20
  A 0.32 0.32 0.0 0 1 270.64 342.53
  Z"
/>
</svg>
